HIERARCHY
ROOT reference
{
  OFFSET -65.3212 -1.93545 -120.338
  CHANNELS 6 Xposition Yposition Zposition Zrotation Xrotation Yrotation
  JOINT Hips
  {
    OFFSET 0 78.7191 0
    CHANNELS 3 Zrotation Xrotation Yrotation
    JOINT Chest
    {
      OFFSET 0 8.7983 -4.7612
      CHANNELS 3 Zrotation Xrotation Yrotation
      JOINT Chest2
      {
        OFFSET 0 8.0291 0.4195
        CHANNELS 3 Zrotation Xrotation Yrotation
        JOINT Chest3
        {
          OFFSET 0 9.9351 -2.2114
          CHANNELS 3 Zrotation Xrotation Yrotation
          JOINT Neck
          {
            OFFSET 0 22.3885 -0.4656
            CHANNELS 3 Zrotation Xrotation Yrotation
            JOINT Head
            {
              OFFSET -0.0001 12.643 3.4389
              CHANNELS 3 Zrotation Xrotation Yrotation
              End Site
              {
                OFFSET 0.0001 17.6655 0.5274
              }
            }
          }
          JOINT LeftCollar
          {
            OFFSET 2.2603 21.606 7.4023
            CHANNELS 3 Zrotation Xrotation Yrotation
            JOINT LeftShoulder
            {
              OFFSET 13.5163 -1.1332 -5.0146
              CHANNELS 3 Zrotation Xrotation Yrotation
              JOINT LeftElbow
              {
                OFFSET -0.0995 -28.05 -0.2431
                CHANNELS 3 Zrotation Xrotation Yrotation
                JOINT LeftWrist
                {
                  OFFSET 0.0679 -23.3996 -0.1402
                  CHANNELS 3 Zrotation Xrotation Yrotation
                  JOINT LeftFinger1
                  {
                    OFFSET 0.7932 -9.069 2.5189
                    CHANNELS 3 Zrotation Xrotation Yrotation
                    JOINT LeftFinger11
                    {
                      OFFSET -0.8272 -3.3923 0.5977
                      CHANNELS 3 Zrotation Xrotation Yrotation
                      JOINT LeftFinger12
                      {
                        OFFSET -0.5649 -2.3158 0.4082
                        CHANNELS 3 Zrotation Xrotation Yrotation
                        End Site
                        {
                          OFFSET -0.4919 -1.6479 0.2673
                        }
                      }
                    }
                  }
                  JOINT LeftFinger2
                  {
                    OFFSET 0.9159 -9.2044 0.2193
                    CHANNELS 3 Zrotation Xrotation Yrotation
                    JOINT LeftFinger21
                    {
                      OFFSET 0.0117 -4.1944 -0.0248
                      CHANNELS 3 Zrotation Xrotation Yrotation
                      JOINT LeftFinger22
                      {
                        OFFSET 0.0071 -2.3249 -0.0142
                        CHANNELS 3 Zrotation Xrotation Yrotation
                        End Site
                        {
                          OFFSET -0.1475 -2.0882 0.0028
                        }
                      }
                    }
                  }
                  JOINT LeftFinger3
                  {
                    OFFSET 0.6113 -8.7231 -2.0637
                    CHANNELS 3 Zrotation Xrotation Yrotation
                    JOINT LeftFinger31
                    {
                      OFFSET -0.1927 -3.8059 -0.2383
                      CHANNELS 3 Zrotation Xrotation Yrotation
                      JOINT LeftFinger32
                      {
                        OFFSET -0.1091 -2.1688 -0.1362
                        CHANNELS 3 Zrotation Xrotation Yrotation
                        End Site
                        {
                          OFFSET -0.2358 -1.9176 -0.0906
                        }
                      }
                    }
                  }
                  JOINT LeftFinger4
                  {
                    OFFSET -0.6151 -8.0947 -3.5641
                    CHANNELS 3 Zrotation Xrotation Yrotation
                    JOINT LeftFinger41
                    {
                      OFFSET -0.4882 -2.341 -0.6462
                      CHANNELS 3 Zrotation Xrotation Yrotation
                      JOINT LeftFinger42
                      {
                        OFFSET -0.3575 -1.7167 -0.4742
                        CHANNELS 3 Zrotation Xrotation Yrotation
                        End Site
                        {
                          OFFSET -0.4187 -1.5237 -0.3496
                        }
                      }
                    }
                  }
                  JOINT LeftFinger0
                  {
                    OFFSET -1.42 -1.8761 1.4223
                    CHANNELS 3 Zrotation Xrotation Yrotation
                    JOINT LeftFinger01
                    {
                      OFFSET -1.1471 -3.4929 2.6334
                      CHANNELS 3 Zrotation Xrotation Yrotation
                      JOINT LeftFinger02
                      {
                        OFFSET -0.823 -2.3 1.6571
                        CHANNELS 3 Zrotation Xrotation Yrotation
                        End Site
                        {
                          OFFSET -0.5822 -1.6914 1.1582
                        }
                      }
                    }
                  }
                }
              }
            }
          }
          JOINT RightCollar
          {
            OFFSET -2.2603 21.606 7.4023
            CHANNELS 3 Zrotation Xrotation Yrotation
            JOINT RightShoulder
            {
              OFFSET -13.5187 -1.1334 -5.0155
              CHANNELS 3 Zrotation Xrotation Yrotation
              JOINT RightElbow
              {
                OFFSET 0.0994 -28.0499 -0.2431
                CHANNELS 3 Zrotation Xrotation Yrotation
                JOINT RightWrist
                {
                  OFFSET -0.0679 -23.3996 -0.1402
                  CHANNELS 3 Zrotation Xrotation Yrotation
                  JOINT RightFinger1
                  {
                    OFFSET -0.7932 -9.0691 2.5189
                    CHANNELS 3 Zrotation Xrotation Yrotation
                    JOINT RightFinger11
                    {
                      OFFSET 0.8272 -3.3923 0.5977
                      CHANNELS 3 Zrotation Xrotation Yrotation
                      JOINT RightFinger12
                      {
                        OFFSET 0.565 -2.3158 0.4082
                        CHANNELS 3 Zrotation Xrotation Yrotation
                        End Site
                        {
                          OFFSET 0.4919 -1.6479 0.2673
                        }
                      }
                    }
                  }
                  JOINT RightFinger2
                  {
                    OFFSET -0.916 -9.2044 0.2193
                    CHANNELS 3 Zrotation Xrotation Yrotation
                    JOINT RightFinger21
                    {
                      OFFSET -0.0117 -4.1944 -0.0248
                      CHANNELS 3 Zrotation Xrotation Yrotation
                      JOINT RightFinger22
                      {
                        OFFSET -0.0071 -2.3249 -0.0142
                        CHANNELS 3 Zrotation Xrotation Yrotation
                        End Site
                        {
                          OFFSET 0.1475 -2.0882 0.0028
                        }
                      }
                    }
                  }
                  JOINT RightFinger3
                  {
                    OFFSET -0.6113 -8.7231 -2.0637
                    CHANNELS 3 Zrotation Xrotation Yrotation
                    JOINT RightFinger31
                    {
                      OFFSET 0.1927 -3.8059 -0.2383
                      CHANNELS 3 Zrotation Xrotation Yrotation
                      JOINT RightFinger32
                      {
                        OFFSET 0.1091 -2.1688 -0.1362
                        CHANNELS 3 Zrotation Xrotation Yrotation
                        End Site
                        {
                          OFFSET 0.2358 -1.9176 -0.0906
                        }
                      }
                    }
                  }
                  JOINT RightFinger4
                  {
                    OFFSET 0.6151 -8.0947 -3.564
                    CHANNELS 3 Zrotation Xrotation Yrotation
                    JOINT RightFinger41
                    {
                      OFFSET 0.4882 -2.341 -0.6462
                      CHANNELS 3 Zrotation Xrotation Yrotation
                      JOINT RightFinger42
                      {
                        OFFSET 0.3574 -1.7166 -0.4742
                        CHANNELS 3 Zrotation Xrotation Yrotation
                        End Site
                        {
                          OFFSET 0.4187 -1.5237 -0.3496
                        }
                      }
                    }
                  }
                  JOINT RightFinger0
                  {
                    OFFSET 1.4199 -1.8761 1.4221
                    CHANNELS 3 Zrotation Xrotation Yrotation
                    JOINT RightFinger01
                    {
                      OFFSET 1.1472 -3.4929 2.6336
                      CHANNELS 3 Zrotation Xrotation Yrotation
                      JOINT RightFinger02
                      {
                        OFFSET 0.8229 -2.3 1.6571
                        CHANNELS 3 Zrotation Xrotation Yrotation
                        End Site
                        {
                          OFFSET 0.5822 -1.6914 1.1582
                        }
                      }
                    }
                  }
                }
              }
            }
          }
        }
      }
    }
    JOINT RightHip
    {
      OFFSET -9.412 3.9771 -0.7758
      CHANNELS 3 Zrotation Xrotation Yrotation
      JOINT RightKnee
      {
        OFFSET -0.7531 -40.938 0
        CHANNELS 3 Zrotation Xrotation Yrotation
        JOINT RightAnkle
        {
          OFFSET 0 -40.1986 0
          CHANNELS 3 Zrotation Xrotation Yrotation
          JOINT RightToe
          {
            OFFSET 0 -4.4182 9.239
            CHANNELS 3 Zrotation Xrotation Yrotation
            End Site
            {
              OFFSET 0 0 6.1981
            }
          }
        }
      }
    }
    JOINT LeftHip
    {
      OFFSET 9.4119 3.9773 -0.7758
      CHANNELS 3 Zrotation Xrotation Yrotation
      JOINT LeftKnee
      {
        OFFSET 0.7532 -40.9383 0
        CHANNELS 3 Zrotation Xrotation Yrotation
        JOINT LeftAnkle
        {
          OFFSET 0 -40.1986 0
          CHANNELS 3 Zrotation Xrotation Yrotation
          JOINT LeftToe
          {
            OFFSET 0 -4.4182 9.239
            CHANNELS 3 Zrotation Xrotation Yrotation
            End Site
            {
              OFFSET 0 0 6.1981
            }
          }
        }
      }
    }
  }
}
MOTION
Frames:	8
Frame Time:	0.0333333
-65.4499 -25.6149 7.15855 0 0 -0 -2.74351 -36.3889 112.129 2.86414 -3.9817 -1.27353 5.65952 -8.02137 -2.3541 5.65953 -8.02139 -2.35409 -0.899656 -13.6116 -22.7509 31.1149 10.1389 1.28362 29.7125 -1.10853 -28.2269 14.8267 -10.1179 13.2694 -38.9896 -22.5631 -27.7291 11.424 -48.7497 -20.1731 -6.07072 12.2036 -4.11487 -8.98355 5.59898 -0.0430712 -10.0573 6.26358 0.0108785 -5.31424 4.63698 -3.36825 -13.1239 8.28495 -0.344999 -8.01696 5.06156 -0.437295 0.258321 -2.39616 0.86601 -11.099 7.7413 -0.727054 -6.21804 4.32191 -0.591982 2.9857 3.23106 1.87549 -8.19241 5.64111 -0.964175 -12.3204 8.52162 -1.14345 11.0861 -9.00274 1.09847 -5.40003 0.482134 0.250977 -4.75576 -6.42892 1.06217 -7.88807 1.0381 -18.4716 -36.7543 -47.2053 -10.3734 16.9735 -63.9109 4.07816 -11.1708 -15.3153 -70.1264 -26.3169 9.86692 9.08475 39.4243 12.0336 -4.97758 45.4054 13.4038 -6.38636 -2.23352 10.2521 5.03872 52.3752 15.6204 -6.40182 44.0891 13.7159 -4.48613 15.0073 7.58684 -5.70548 37.2883 13.8495 -2.53174 38.5715 14.2636 -2.77364 23.0539 4.37533 -8.90257 30.7535 11.5467 -0.514037 30.6847 11.5224 -0.505947 7.91149 0.880169 52.6243 -0.671122 1.52911 0.489021 -7.1974 14.537 5.60462 0.0770497 -45.1871 -28.6951 74.0667 74.2647 -68.4089 3.0244 -38.3539 11.7864 -2.02996 -14.1362 0.554302 117.686 -54.4145 83.0702 -5.52176 84.701 2.34373 -8.16322 -11.5725 -15.8474 -2.7519 -7.79221 -0.254095 
-64.9108 -27.4188 5.56119 0 0 -0 1.546 -32.9758 111.693 3.18705 -3.61763 -1.25058 6.31331 -7.29857 -2.30422 6.31334 -7.29859 -2.30421 -0.732042 -7.66809 -18.4585 31.3104 8.5089 3.29224 29.0454 -0.845913 -27.0871 12.5669 -12.9693 11.6661 -34.9402 -21.0416 -25.8722 13.4203 -46.6493 -16.7002 -6.6597 12.6292 -4.04241 -8.99933 5.60877 -0.0423514 -10.2225 6.3656 0.0202267 -5.75785 4.9511 -3.37647 -13.1217 8.2836 -0.34508 -8.15383 5.14829 -0.438609 -0.521918 -1.77958 0.76723 -11.2669 7.85867 -0.726465 -6.54264 4.54927 -0.61004 1.96959 3.42858 1.73978 -8.49831 5.85437 -0.984609 -12.2735 8.48887 -1.14259 10.6947 -8.02162 0.667977 -5.19304 0.4332 0.268924 -4.31166 -5.82084 0.984726 -3.17652 0.707259 -11.9032 -38.4674 -46.2919 -12.4437 20.6421 -59.2674 7.34568 -9.86112 -18.6664 -62.2692 -26.3169 9.86695 9.08479 39.4243 12.0336 -4.97757 45.4054 13.4037 -6.38648 -2.23353 10.2522 5.03875 52.3752 15.6204 -6.4018 44.0891 13.7159 -4.48607 15.0073 7.58683 -5.70549 37.2883 13.8495 -2.53169 38.5715 14.2636 -2.77362 23.0539 4.37534 -8.90256 30.7535 11.5466 -0.514206 30.6847 11.5224 -0.506108 7.91147 0.880184 52.6244 -0.671109 1.52906 0.489025 -7.19738 14.537 5.6046 -2.47717 -41.076 -26.6941 86.9843 74.5292 -81.1562 2.84366 -40.3494 13.1102 -1.94968 -13.5537 0.54072 111.585 -54.0291 77.078 -71.6038 89.5888 68.6993 -5.60135 -14.9953 -15.3328 -2.64398 -8.64158 -0.29454 
-64.7847 -29.2915 3.93294 0 0 -0 4.12929 -30.3779 109.735 3.76282 -3.33923 -1.10383 7.47988 -6.74329 -1.99049 7.4799 -6.74332 -1.9905 -0.559475 -2.24921 -14.0158 29.3284 6.36809 5.18917 27.7188 -0.896274 -27.3457 11.0953 -15.4967 10.7023 -31.3365 -19.266 -23.3711 14.685 -45.9589 -15.7382 -7.222 13.0338 -3.97036 -9.00769 5.61394 -0.0419927 -10.3877 6.46761 0.0298921 -6.17075 5.24342 -3.3819 -13.1196 8.28228 -0.34518 -8.29069 5.23499 -0.439706 -1.27486 -1.17464 0.675038 -11.4088 7.9579 -0.725728 -6.83392 4.75331 -0.625151 0.971981 3.59966 1.60395 -8.77206 6.04529 -1.00195 -12.2265 8.45609 -1.1417 10.2799 -6.95953 0.232677 -4.96894 0.379698 0.286137 -3.83514 -5.1696 0.896532 0.0642135 0.358414 -6.15309 -39.4085 -45.7374 -13.5071 20.5145 -53.2353 8.80168 -8.39431 -22.9122 -56.8214 -26.3169 9.86695 9.08483 39.4243 12.0336 -4.97758 45.4054 13.4037 -6.38648 -2.23357 10.2522 5.03886 52.3752 15.6204 -6.40174 44.0891 13.7159 -4.48603 15.0073 7.58683 -5.70547 37.2883 13.8495 -2.53183 38.5715 14.2636 -2.77361 23.0538 4.37537 -8.90254 30.7535 11.5466 -0.514207 30.6847 11.5224 -0.506085 7.91146 0.880223 52.6244 -0.671134 1.52903 0.48908 -7.19739 14.537 5.60462 -5.58061 -38.7504 -25.1332 100.171 73.9809 -94.0629 1.90139 -41.8837 14.3898 -1.88053 -13.0515 0.528432 107.401 -53.1719 72.8129 -177.402 85.1628 175.054 -3.46512 -18.2864 -14.6666 -2.68795 -8.29507 -0.278216 
-64.7623 -31.4132 2.17127 0 0 -0 7.63475 -27.2642 106.996 4.2926 -2.61514 -0.801777 8.5618 -5.28279 -1.40721 8.56183 -5.28281 -1.40722 -0.392665 2.69338 -9.75347 26.7746 4.29341 6.4307 27.146 -0.966759 -27.6716 10.0955 -19.3793 8.7127 -28.1446 -16.6687 -22.1149 14.8143 -44.2138 -16.7425 -7.75716 13.4169 -3.8988 -9.01605 5.61914 -0.0416171 -10.5265 6.55326 0.0382426 -6.5537 5.51442 -3.38506 -13.1124 8.27774 -0.345514 -8.39888 5.30352 -0.440411 -1.99873 -0.583692 0.589159 -11.5507 8.0571 -0.724738 -7.07872 4.92485 -0.637037 -0.0028786 3.74584 1.46909 -9.01553 6.2151 -1.01656 -12.1795 8.42335 -1.14078 9.84937 -5.83135 -0.205529 -4.73022 0.322256 0.301927 -3.33052 -4.46735 0.795732 2.99286 -0.055087 0.825385 -41.8546 -44.0012 -15.6637 18.266 -48.0177 7.98821 -6.16609 -26.7648 -51.6691 -26.3169 9.8669 9.08488 39.4243 12.0336 -4.97756 45.4054 13.4037 -6.3865 -2.23349 10.2522 5.03865 52.3752 15.6203 -6.40189 44.0891 13.716 -4.48592 15.0073 7.58683 -5.70547 37.2883 13.8495 -2.53184 38.5715 14.2636 -2.77362 23.0538 4.3754 -8.90246 30.7535 11.5466 -0.51422 30.6847 11.5224 -0.506075 7.91148 0.880202 52.6244 -0.671164 1.52905 0.48913 -7.19739 14.5369 5.60467 -9.15157 -36.1895 -22.6696 113.571 72.4517 -107.133 0.730988 -43.2053 16.0872 -1.66954 -11.5187 0.4872 101.815 -50.9805 67.3903 -179.143 80.0712 176.815 -1.38921 -21.6362 -13.9345 -2.63702 -8.69649 -0.29709 
-64.9118 -33.8136 0.246579 0 0 -0 11.2806 -23.8651 103.904 4.72233 -1.64686 -0.475248 9.43685 -3.3272 -0.813705 9.43687 -3.32723 -0.813717 -0.218556 7.43642 -5.40069 23.8367 2.20707 7.80239 27.6908 -0.942385 -27.5499 7.79573 -24.5206 5.35675 -24.1403 -13.8781 -21.1703 14.9554 -42.8266 -18.8669 -8.26466 13.7783 -3.82785 -9.02442 5.62433 -0.0412415 -10.649 6.62882 0.0457859 -6.90746 5.76471 -3.38639 -13.1052 8.27318 -0.345856 -8.50708 5.37209 -0.441002 -2.69175 -0.00905428 0.509247 -11.6613 8.13439 -0.723757 -7.32359 5.09647 -0.648196 -0.950862 3.86886 1.33632 -9.23035 6.36501 -1.02888 -12.1015 8.36892 -1.13919 9.40844 -4.64979 -0.635912 -4.47953 0.261211 0.315717 -2.8251 -3.76601 0.688806 5.03913 -0.442409 7.43947 -45.5372 -43.4237 -17.3485 13.4958 -42.6696 8.52227 -5.43487 -29.5224 -52.4682 -26.3168 9.86695 9.08473 39.4243 12.0336 -4.97756 45.4054 13.4037 -6.38649 -2.23351 10.2521 5.03866 52.3752 15.6204 -6.40189 44.0891 13.7159 -4.48611 15.0073 7.58685 -5.70543 37.2883 13.8495 -2.53182 38.5715 14.2635 -2.77359 23.0538 4.3753 -8.9026 30.7535 11.5467 -0.514207 30.6847 11.5224 -0.506046 7.91147 0.880212 52.6244 -0.671115 1.52913 0.489007 -7.19743 14.5369 5.60473 -14.0175 -34.2159 -20.143 125.528 69.8611 -118.611 0.187425 -44.2505 18.718 -1.70063 -11.7447 0.493573 95.9215 -48.7033 62.0382 -179.676 74.9267 177.295 0.416315 -24.9567 -12.6015 -2.59337 -9.04075 -0.313023 
-65.3286 -36.3449 -1.60183 0 0 -0 13.9801 -21.2176 100.603 5.18358 -0.736143 -0.0318924 10.368 -1.47217 0.00283894 10.3681 -1.47217 0.00284017 -0.0893003 10.5909 -2.24492 20.8609 1.51738 8.77413 27.6288 -1.02865 -27.9327 6.26937 -29.1546 1.7978 -21.3242 -12.1044 -21.9747 17.4975 -40.1491 -16.7981 -8.74399 14.1176 -3.7576 -9.03279 5.62951 -0.040855 -10.7562 6.69491 0.0524815 -7.23281 5.99481 -3.38622 -13.0979 8.26863 -0.346206 -8.59591 5.4283 -0.44137 -3.35215 0.546916 0.435006 -11.7719 8.21165 -0.72262 -7.5125 5.22888 -0.656311 -1.86771 3.97029 1.2065 -9.40592 6.48749 -1.03851 -12.0234 8.31449 -1.13753 8.96099 -3.42716 -1.04475 -4.21582 0.196274 0.327122 -2.2813 -3.03628 0.570081 6.21041 -0.739383 12.1014 -50.5891 -44.9308 -21.172 11.7367 -37.2739 7.76901 -5.90418 -29.1413 -48.1845 -26.3169 9.86695 9.08473 39.4243 12.0336 -4.97756 45.4054 13.4037 -6.3865 -2.23351 10.2522 5.03865 52.3752 15.6204 -6.40188 44.0891 13.7159 -4.48612 15.0073 7.58689 -5.70532 37.2883 13.8496 -2.5318 38.5715 14.2636 -2.77358 23.0539 4.37531 -8.90261 30.7535 11.5466 -0.514193 30.6847 11.5224 -0.505966 7.91147 0.880232 52.6245 -0.671111 1.52911 0.48901 -7.19736 14.5369 5.60458 -19.6542 -33.9058 -18.612 134.522 66.6958 -127.071 0.155901 -44.5432 21.9805 -1.64088 -11.3103 0.481106 91.4384 -47.4715 57.9198 179.891 69.9917 177.962 1.28535 -27.817 -10.5991 -2.60224 -8.97075 -0.309788 
-65.5632 -38.9449 -3.50331 0 0 -0 18.6572 -18.3143 97.1127 5.63543 0.909445 0.754446 11.2607 1.88854 1.41625 11.2607 1.88854 1.41624 -0.0143944 11.1084 -0.391092 17.882 0.921777 9.14645 27.8994 -1.17278 -28.5635 4.94233 -35.1108 -1.68108 -19.2064 -11.0457 -20.8895 18.614 -38.3547 -16.1911 -9.19473 14.4345 -3.68802 -9.04113 5.63468 -0.0404886 -10.8492 6.75223 0.058441 -7.53052 6.20523 -3.3849 -13.0906 8.26405 -0.346529 -8.67286 5.47704 -0.44166 -3.97815 1.08189 0.366115 -11.855 8.26971 -0.721706 -7.70142 5.36131 -0.663971 -2.74928 4.05185 1.08058 -9.58145 6.60999 -1.04777 -11.9145 8.23853 -1.13508 8.50994 -2.17418 -1.41885 -3.95219 0.130567 0.335359 -1.73632 -2.30769 0.444499 3.49196 -0.945086 14.8109 -55.1492 -48.3191 -26.3283 10.3668 -33.3992 2.53271 -8.04826 -26.771 -38.7144 -26.3169 9.867 9.08475 39.4242 12.0336 -4.97756 45.4053 13.4038 -6.38649 -2.23351 10.2522 5.03865 52.3752 15.6204 -6.40186 44.0891 13.7159 -4.48609 15.0073 7.58682 -5.7055 37.2883 13.8496 -2.53178 38.5715 14.2635 -2.77352 23.0538 4.3753 -8.90258 30.7535 11.5466 -0.514212 30.6847 11.5224 -0.506067 7.91146 0.880208 52.6243 -0.671103 1.52908 0.489034 -7.19736 14.537 5.60457 -25.6626 -32.7571 -16.3116 141.427 63.0282 -133.171 -0.34247 -44.2132 25.0517 -1.61744 -11.1401 0.476086 85.1077 -44.9892 51.6648 179.823 65.1559 177.767 1.71678 -30.5751 -8.59053 -2.58985 -9.06866 -0.314221 
-65.7567 -41.5746 -5.41701 0 0 -0 24.1996 -15.4598 93.5942 5.96387 2.83497 1.60366 11.8689 5.82049 2.90889 11.8689 5.8205 2.90887 0.0281023 10.4412 0.712592 14.9192 0.975684 9.26357 27.4351 -1.26097 -28.9668 5.10536 -40.6422 -4.34459 -18.1506 -10.8382 -20.0915 18.2173 -36.7744 -16.9363 -9.61635 14.7287 -3.61923 -9.04949 5.63986 -0.040109 -10.9228 6.79759 0.0631853 -7.80133 6.39659 -3.38277 -13.0834 8.25952 -0.346878 -8.73891 5.51885 -0.441822 -4.56786 1.59363 0.30214 -11.9382 8.32779 -0.720699 -7.84168 5.45961 -0.669369 -3.59131 4.11532 0.959223 -9.71055 6.70008 -1.05434 -11.8057 8.16256 -1.13249 8.06734 -0.918331 -1.78285 -3.68018 0.0618795 0.34054 -1.18996 -1.58035 0.312043 -1.01836 -1.09191 16.8756 -60.5587 -51.1048 -32.4906 8.3878 -30.8942 -3.7111 -8.40861 -25.3425 -31.1396 -26.3169 9.86697 9.08478 39.4243 12.0336 -4.97756 45.4054 13.4038 -6.38646 -2.23352 10.2521 5.03866 52.3752 15.6204 -6.40183 44.0891 13.7159 -4.48608 15.0073 7.58683 -5.70549 37.2883 13.8496 -2.53173 38.5715 14.2635 -2.77346 23.0538 4.37531 -8.90257 30.7535 11.5467 -0.514166 30.6847 11.5224 -0.506042 7.91147 0.88019 52.6244 -0.671084 1.52912 0.489023 -7.19738 14.5369 5.60461 -32.492 -31.8371 -14.1599 146.719 59.0642 -137.391 -1.91122 -43.3262 26.6787 -1.53907 -10.5709 0.458874 78.5794 -41.7254 45.5402 179.895 60.5708 177.006 1.89996 -32.9842 -6.59765 -2.60909 -8.91678 -0.307288 
